# xmcd
#
# Track frame offsets:
#	150
#	17825
#	34222
#	62384
#	77234
#	99922
#	116872
#	132133
#	150387
#	164733
#	184848
#	207968
#
# Disc length: 2986 seconds
#
# Revision: 1
# Processed by: cddbd v1.5.2PL0 Copyright (c) Steve Scherf et al.
# Submitted via: audiograbber 1.83.01
#
DISCID=9b0ba80c
DTITLE=Solomon Burke - Nothing's Impossible
DYEAR=2010
DGENRE=Soul
TTITLE0=Oh What A Feeling
TTITLE1=Everything About You
TTITLE2=Dreams
TTITLE3=Nothing's Impossible
TTITLE4=It Must Be Love
TTITLE5=You Needed Me
TTITLE6=Say You Love Me Too
TTITLE7=You're Not Alone
TTITLE8=New Company
TTITLE9=When You're Not Here
TTITLE10=The Error Of My Ways
TTITLE11=I'm Leaving
EXTD=Produced by Willie Mitchell
EXTT0=
EXTT1=
EXTT2=
EXTT3=
EXTT4=
EXTT5=
EXTT6=
EXTT7=
EXTT8=
EXTT9=
EXTT10=
EXTT11=
PLAYORDER=
